HIERARCHY
ROOT root
{
	OFFSET 0.0000 0.0000 0.0000
	CHANNELS 6 Xposition Yposition Zposition Zrotation Xrotation Yrotation
	JOINT lowerback
	{
		OFFSET 0.0000 0.0000 0.0000
		CHANNELS 3 Zrotation Xrotation Yrotation
		JOINT upperback
		{
			OFFSET -0.2975 11.0962 -0.4289
			CHANNELS 3 Zrotation Xrotation Yrotation
			JOINT thorax
			{
				OFFSET -0.0009 11.0405 -0.3169
				CHANNELS 3 Zrotation Xrotation Yrotation
				JOINT neck
				{
					OFFSET 0.1944 11.1642 0.0841
					CHANNELS 3 Zrotation Xrotation Yrotation
					JOINT head
					{
						OFFSET 1.6277 15.5530 -0.6089
						CHANNELS 3 Zrotation Xrotation Yrotation
						End Site
						{
							OFFSET -0.0000 0.0000 0.0000
						}
					}
				}
			}
			JOINT lshoulderjoint
			{
				OFFSET -0.0009 11.0405 -0.3169
				CHANNELS 3 Zrotation Xrotation Yrotation
				JOINT lhumerus
				{
					OFFSET 14.1669 18.7170 0.1105
					CHANNELS 3 Zrotation Xrotation Yrotation
					JOINT lradius
					{
						OFFSET 29.5186 0.0000 0.0000
						CHANNELS 3 Zrotation Xrotation Yrotation
						JOINT lhand
						{
							OFFSET 23.9354 0.0000 0.0000
							CHANNELS 3 Zrotation Xrotation Yrotation
							End Site
							{
								OFFSET 0.0000 -0.0000 0.0000
							}
						}
					}
				}
			}
			JOINT rshoulderjoint
			{
				OFFSET -0.0009 11.0405 -0.3169
				CHANNELS 3 Zrotation Xrotation Yrotation
				JOINT rhumerus
				{
					OFFSET -14.2042 18.2168 -0.2511
					CHANNELS 3 Zrotation Xrotation Yrotation
					JOINT rradius
					{
						OFFSET -29.7619 0.0000 0.0000
						CHANNELS 3 Zrotation Xrotation Yrotation
						JOINT rhand
						{
							OFFSET -25.1658 0.0000 0.0000
							CHANNELS 3 Zrotation Xrotation Yrotation
							End Site
							{
								OFFSET 0.0000 0.0000 0.0000
							}
						}
					}
				}
			}
		}
	}
	JOINT rfemur
	{
		OFFSET -7.7032 -9.8555 2.1513
		CHANNELS 3 Zrotation Xrotation Yrotation
		JOINT rtibia
		{
			OFFSET -7.1353 -40.4666 0.0000
			CHANNELS 3 Zrotation Xrotation Yrotation
			JOINT rfoot
			{
				OFFSET -6.6645 -37.7961 0.0000
				CHANNELS 3 Zrotation Xrotation Yrotation
				JOINT rtoes
				{
					OFFSET -3.4134 -6.6508 11.8768
					CHANNELS 3 Zrotation Xrotation Yrotation
					End Site
					{
						OFFSET 0.0000 0.0000 0.0000
					}
				}
			}
		}
	}
	JOINT lfemur
	{
		OFFSET 8.5590 -9.8555 2.1513
		CHANNELS 3 Zrotation Xrotation Yrotation
		JOINT ltibia
		{
			OFFSET 7.2751 -41.2593 0.0000
			CHANNELS 3 Zrotation Xrotation Yrotation
			JOINT lfoot
			{
				OFFSET 6.5686 -37.2525 -0.0000
				CHANNELS 3 Zrotation Xrotation Yrotation
				JOINT ltoes
				{
					OFFSET 3.2326 -4.1860 10.4122
					CHANNELS 3 Zrotation Xrotation Yrotation
					End Site
					{
						OFFSET -0.0000 -0.0000 0.0000
					}
				}
			}
		}
	}
}
MOTION
Frames: 12
Frame Time: 0.008333
-122.4234 95.2983 -155.7144 -3.6700 8.2400 46.5500 -3.1300 -15.7200 -3.1000 -0.6900 -2.5700 -3.5000 0.8500 13.4200 -1.8500 -7.1700 7.7800 -9.5100 10.4600 1.8000 -10.1100 -85.7700 3.6600 -166.5600 -12.5300 -18.1500 -182.0400 0.0000 -0.0000 -63.4800 33.0400 35.1200 0.7800 89.8400 -2.6300 166.7200 9.2200 -0.3800 145.7700 -0.0000 -0.0000 66.4800 -6.7400 45.1100 -23.6800 -6.2900 -41.2600 -31.5500 1.7000 31.0700 -6.1000 -5.8900 16.6100 20.8600 0.0000 -0.2400 0.0400 -9.7700 1.2000 7.1400 -1.2700 27.3000 5.2200 0.0000 0.0000 0.0000 0.0000 0.0000 0.0000 
-121.8093 95.4171 -154.7805 -3.8100 8.1000 46.8200 -2.8000 -15.8100 -2.9800 -0.5900 -2.6400 -3.4100 0.6600 13.4200 -1.7800 -7.2800 7.7400 -9.5200 10.8500 2.4500 -10.1900 -85.8700 3.5500 -166.5700 -12.1800 -18.3700 -181.6700 0.0000 -0.0000 -62.8600 32.1100 35.1600 1.9800 89.7700 -2.5300 166.7100 9.2000 0.0500 145.8700 -0.0000 -0.0000 66.3700 -6.6500 45.1600 -23.5100 -6.2300 -40.7000 -31.8400 1.7500 31.5200 -6.2100 -5.7700 16.2600 20.9800 0.0000 -0.1500 0.0300 -9.3900 0.6000 6.4800 -1.4500 28.9800 5.6000 0.0000 0.0000 0.0000 0.0000 0.0000 0.0000 
-121.2243 95.5505 -153.8813 -3.8800 7.8600 47.0600 -2.4900 -15.6200 -2.8900 -0.4600 -2.6400 -3.3600 0.5300 13.2200 -1.7400 -7.4800 7.6400 -9.5100 11.3000 3.5000 -10.3000 -85.8400 3.4000 -166.8000 -11.5600 -18.3900 -181.1400 0.0000 -0.0000 -62.2100 31.2600 35.3400 2.8300 89.8000 -2.3900 166.9000 9.2300 0.2300 146.0100 -0.0000 -0.0000 66.2900 -7.1500 45.1200 -23.1500 -6.0900 -40.0100 -32.0700 1.8100 31.9400 -6.3100 -5.6200 15.8800 21.0300 0.0000 -0.1800 0.0300 -8.8600 -0.1700 6.1700 -1.6800 30.9100 6.0600 0.0000 0.0000 0.0000 0.0000 0.0000 0.0000 
-120.6216 95.6521 -152.9814 -3.9800 7.6700 47.1000 -2.3300 -15.6800 -2.7600 -0.2400 -2.5300 -3.2300 0.6400 13.3700 -1.6800 -7.6000 7.3000 -9.6000 11.1400 3.5400 -10.3700 -85.8900 3.3500 -166.6300 -10.9800 -18.1300 -180.6500 0.0000 -0.0000 -61.6200 31.2600 35.7900 3.3900 89.8400 -2.3600 166.7600 9.2400 0.1800 146.5500 -0.0000 -0.0000 66.2400 -7.3800 44.9200 -23.4700 -5.7800 -39.3100 -32.0300 1.8300 32.1400 -6.3600 -5.4600 15.4300 21.1300 0.0000 -0.1300 0.0200 -8.4000 -1.1400 5.8600 -1.9700 33.1600 6.6200 0.0000 0.0000 0.0000 0.0000 0.0000 0.0000 
-120.0026 95.7593 -152.0822 -4.0200 7.5600 47.1300 -2.4300 -15.9300 -2.6300 0.0700 -2.3700 -3.0800 1.0600 13.7800 -1.6400 -7.9700 6.7700 -9.7300 11.0800 3.3300 -10.4800 -85.8300 3.2800 -166.1900 -10.5000 -17.9700 -180.4100 0.0000 -0.0000 -60.9100 30.9900 36.0900 3.7300 89.9400 -2.2600 166.3400 9.2300 0.0400 147.3000 -0.0000 -0.0000 66.1600 -6.2200 44.2300 -24.3900 -5.5200 -38.5800 -31.9800 1.8400 32.2000 -6.3800 -5.2800 14.9800 21.1500 0.0000 -0.0400 0.0100 -8.0500 -2.2700 5.5600 -2.3300 35.5900 7.2500 0.0000 0.0000 0.0000 0.0000 0.0000 0.0000 
-119.3825 95.8886 -151.2418 -3.7900 7.3600 47.4200 -2.4700 -15.7300 -2.6300 0.1900 -2.2000 -3.0900 1.2400 13.7600 -1.6600 -8.1500 6.9300 -10.2100 11.2700 3.2000 -10.9600 -85.6500 3.1000 -166.2400 -9.7600 -17.8200 -180.0000 0.0000 -0.0000 -60.1000 30.4800 36.0900 3.7900 90.0700 -2.0700 166.3200 9.2700 -0.3300 147.8000 -0.0000 -0.0000 66.1100 -5.3200 43.9700 -24.7300 -5.6300 -37.4600 -32.2900 1.8500 32.2300 -6.3800 -5.1100 14.5100 21.3100 0.0000 -0.0400 0.0100 -8.0000 -3.2800 4.6300 -2.7700 38.2000 7.9800 0.0000 0.0000 0.0000 0.0000 0.0000 0.0000 
-118.9406 96.0976 -150.5174 -4.5200 6.9200 47.3800 -1.6200 -15.6200 -2.3200 0.7100 -2.2400 -2.8900 1.0100 13.5700 -1.5000 -8.2300 6.6300 -10.4900 10.8500 3.6100 -11.2500 -85.8600 2.9000 -166.4400 -9.1500 -17.6800 -179.7100 0.0000 -0.0000 -59.3400 30.5000 36.3500 4.0600 89.8900 -1.8900 166.5100 9.2600 -0.5700 148.3400 -0.0000 -0.0000 66.0800 -5.3300 44.7200 -24.3300 -4.2700 -37.0100 -31.9800 1.8200 32.0000 -6.3300 -4.9700 14.1500 21.3400 0.0000 -0.0500 0.0100 -6.7800 -5.3700 4.7300 -3.3100 41.0200 8.8200 0.0000 0.0000 0.0000 0.0000 0.0000 0.0000 
-118.3930 96.2922 -149.7104 -4.6100 6.5300 47.3300 -1.1800 -15.4000 -2.0900 0.9600 -2.0400 -2.6800 0.9200 13.5200 -1.3800 -8.1800 6.3300 -10.8600 10.3600 3.9500 -11.6100 -85.8900 2.8500 -166.4700 -8.5600 -17.4100 -179.3000 0.0000 -0.0000 -58.6500 30.2900 36.6900 5.0100 89.6900 -1.8000 166.5700 9.1400 -1.1000 149.0600 -0.0000 -0.0000 66.0900 -4.8100 45.0200 -25.2100 -3.5400 -35.9400 -31.7600 1.7800 31.7100 -6.2500 -4.7900 13.6600 21.5000 0.0000 0.0100 -0.0000 -5.9900 -7.0000 5.0100 -3.9300 43.8500 9.7500 0.0000 0.0000 0.0000 0.0000 0.0000 0.0000 
-117.8250 96.4626 -148.8592 -4.4000 6.2200 47.3900 -1.1300 -15.1000 -2.0700 1.0800 -1.7900 -2.6900 1.0000 13.4600 -1.3900 -8.2300 5.9600 -10.9700 10.0800 4.0200 -11.7000 -85.6500 2.6800 -166.5700 -8.0000 -17.4100 -178.6400 0.0000 -0.0000 -58.0100 29.5300 36.6000 5.9700 89.5800 -1.5400 166.5900 9.0100 -1.9800 149.8300 -0.0000 -0.0000 66.1200 -4.5500 44.4800 -25.3500 -3.2200 -34.6300 -31.7400 1.7300 31.3600 -6.1700 -4.6200 13.2200 21.5800 0.0000 0.0000 -0.0000 -5.6200 -8.4400 4.8600 -4.6600 46.6900 10.7800 0.0000 0.0000 0.0000 0.0000 0.0000 0.0000 
-117.3079 96.5817 -148.0114 -4.4600 6.1000 47.2800 -0.9000 -15.1500 -1.9700 1.1200 -1.6700 -2.5900 0.8400 13.6100 -1.3200 -8.0900 5.5800 -11.0000 9.9100 4.0400 -11.6900 -85.5600 2.3500 -166.4800 -7.6600 -17.5400 -178.0600 0.0000 -0.0000 -57.5000 28.4700 36.4900 6.8100 89.6000 -1.1800 166.3900 8.9700 -2.6000 150.6500 -0.0000 -0.0000 66.2000 -4.2600 44.4600 -25.1900 -2.6200 -33.7300 -31.4800 1.6800 30.9300 -6.0600 -4.5100 12.9000 21.7400 0.0000 -0.0200 0.0000 -5.3700 -10.2600 4.4800 -5.5200 49.5300 11.9300 0.0000 0.0000 0.0000 0.0000 0.0000 0.0000 
-116.8250 96.7019 -147.2362 -4.6100 5.9200 47.4700 -0.7100 -15.0900 -1.8900 1.2300 -1.5700 -2.5300 0.8000 13.6300 -1.2800 -7.9700 5.2800 -10.9800 9.8500 3.8400 -11.6300 -85.5300 2.2600 -166.4800 -7.2900 -17.5400 -177.5200 0.0000 -0.0000 -57.0500 27.5100 36.6500 7.5500 89.6300 -1.0900 166.3600 9.0400 -3.5100 151.5700 -0.0000 -0.0000 66.2900 -3.8600 44.1100 -25.5300 -2.1700 -32.9200 -31.5700 1.6400 30.6200 -5.9900 -4.3500 12.4700 21.8400 0.0000 0.0200 -0.0000 -5.1400 -12.2200 3.8200 -6.5000 52.3000 13.1900 0.0000 0.0000 0.0000 0.0000 0.0000 0.0000 
-116.2672 96.8139 -146.4216 -4.8600 5.7300 47.5600 -0.4800 -15.2500 -1.8200 1.4700 -1.5800 -2.5000 0.8000 13.7700 -1.2500 -8.0300 5.1600 -11.0200 9.8500 4.0000 -11.6800 -85.7200 2.2400 -166.3200 -7.0700 -17.6000 -176.7900 0.0000 -0.0000 -56.6300 27.4600 36.4600 8.0400 89.3600 -1.0400 166.2200 8.9700 -4.9900 152.5400 -0.0000 -0.0000 66.3600 -4.0100 43.7100 -25.8600 -1.5900 -32.1400 -31.5700 1.6100 30.3400 -5.9200 -4.1900 12.0700 21.9100 0.0000 -0.0100 0.0000 -4.5900 -14.2900 3.8000 -7.5900 54.9300 14.5500 0.0000 0.0000 0.0000 0.0000 0.0000 0.0000 
